<svg id="visual" viewBox="0 0 960 540" width="960" height="540" xmlns="http://www.w3.org/2000/svg" xmlns:xlink="http://www.w3.org/1999/xlink" version="1.1"><g transform="translate(502.66343392574174 284.1278625641926)"><path d="M143.8 -180.3C171.8 -147.8 170.1 -88.7 163.6 -41.4C157 6 145.6 41.8 125.3 67.9C104.9 94 75.5 110.4 39.4 135.4C3.2 160.4 -39.8 193.9 -72.7 187.3C-105.7 180.8 -128.6 134.1 -155.2 89.1C-181.8 44.1 -212 0.7 -212.9 -45C-213.8 -90.8 -185.3 -138.8 -144.9 -169.2C-104.6 -199.6 -52.3 -212.3 2.8 -215.6C57.9 -218.9 115.7 -212.9 143.8 -180.3" fill="#300491"></path></g></svg>