<svg id="visual" viewBox="0 0 960 540" width="960" height="540" xmlns="http://www.w3.org/2000/svg" xmlns:xlink="http://www.w3.org/1999/xlink" version="1.1"><g transform="translate(513.274374095326 283.9994683470877)"><path d="M84.1 -138.2C105.5 -100.2 116.9 -71 123.9 -42C130.9 -13.1 133.5 15.6 134.1 52.8C134.8 90.1 133.5 136.1 110.8 162.7C88.2 189.4 44.1 196.7 0.8 195.6C-42.5 194.5 -85 185 -117.8 161.7C-150.7 138.4 -173.8 101.2 -187.9 60.4C-201.9 19.7 -207 -24.6 -190.3 -57.4C-173.5 -90.2 -135 -111.4 -99.6 -144.9C-64.3 -178.5 -32.1 -224.2 -0.4 -223.7C31.3 -223.1 62.7 -176.3 84.1 -138.2" fill="#300491"></path></g></svg>