<svg id="visual" viewBox="0 0 900 600" width="900" height="600" xmlns="http://www.w3.org/2000/svg" xmlns:xlink="http://www.w3.org/1999/xlink" version="1.1"><g stroke-width="1" stroke-linejoin="bevel"><path d="M392.1 309L379.1 261L336.3 331Z" fill="#481ba4" stroke="#481ba4"></path><path d="M379.1 261L286.3 256L336.3 331Z" fill="#481ba4" stroke="#481ba4"></path><path d="M286.3 256L274.5 346L336.3 331Z" fill="#6837c2" stroke="#6837c2"></path><path d="M371.3 189L266.5 242L286.3 256Z" fill="#5325ae" stroke="#5325ae"></path><path d="M286.3 256L266.5 242L274.5 346Z" fill="#9c65f6" stroke="#9c65f6"></path><path d="M402.1 166L371.3 189L379.1 261Z" fill="#5d2eb8" stroke="#5d2eb8"></path><path d="M379.1 261L371.3 189L286.3 256Z" fill="#5325ae" stroke="#5325ae"></path><path d="M274.5 346L337.3 420L336.3 331Z" fill="#8752e1" stroke="#8752e1"></path><path d="M336.3 331L450.1 378L392.1 309Z" fill="#9c65f6" stroke="#9c65f6"></path><path d="M337.3 420L450.1 378L336.3 331Z" fill="#3c109b" stroke="#3c109b"></path><path d="M508.9 265L402.1 166L379.1 261Z" fill="#9c65f6" stroke="#9c65f6"></path><path d="M508.9 265L379.1 261L392.1 309Z" fill="#7240cc" stroke="#7240cc"></path><path d="M371.3 189L248.5 135L266.5 242Z" fill="#925ceb" stroke="#925ceb"></path><path d="M521.9 324L508.9 265L392.1 309Z" fill="#3c109b" stroke="#3c109b"></path><path d="M337.3 420L447.9 422L450.1 378Z" fill="#6837c2" stroke="#6837c2"></path><path d="M450.1 378L500.9 358L392.1 309Z" fill="#481ba4" stroke="#481ba4"></path><path d="M447.9 422L500.9 358L450.1 378Z" fill="#9c65f6" stroke="#9c65f6"></path><path d="M500.9 358L521.9 324L392.1 309Z" fill="#3c109b" stroke="#3c109b"></path><path d="M153.6 335L203.5 405L274.5 346Z" fill="#5325ae" stroke="#5325ae"></path><path d="M274.5 346L203.5 405L337.3 420Z" fill="#6837c2" stroke="#6837c2"></path><path d="M510.9 146L410.1 114L402.1 166Z" fill="#481ba4" stroke="#481ba4"></path><path d="M402.1 166L410.1 114L371.3 189Z" fill="#5d2eb8" stroke="#5d2eb8"></path><path d="M284.3 67L248.5 135L371.3 189Z" fill="#925ceb" stroke="#925ceb"></path><path d="M266.5 242L161.6 266L274.5 346Z" fill="#481ba4" stroke="#481ba4"></path><path d="M248.5 135L161.6 266L266.5 242Z" fill="#481ba4" stroke="#481ba4"></path><path d="M241.5 507L336.3 487L337.3 420Z" fill="#6837c2" stroke="#6837c2"></path><path d="M337.3 420L453.1 469L447.9 422Z" fill="#7240cc" stroke="#7240cc"></path><path d="M521.9 324L546.7 248L508.9 265Z" fill="#7240cc" stroke="#7240cc"></path><path d="M508.9 265L510.9 146L402.1 166Z" fill="#3c109b" stroke="#3c109b"></path><path d="M336.3 487L453.1 469L337.3 420Z" fill="#481ba4" stroke="#481ba4"></path><path d="M447.9 422L594.7 454L500.9 358Z" fill="#925ceb" stroke="#925ceb"></path><path d="M615.7 364L614.7 285L521.9 324Z" fill="#3c109b" stroke="#3c109b"></path><path d="M161.6 266L153.6 335L274.5 346Z" fill="#3c109b" stroke="#3c109b"></path><path d="M161.6 266L144.6 339L153.6 335Z" fill="#925ceb" stroke="#925ceb"></path><path d="M153.6 335L144.6 339L203.5 405Z" fill="#7d49d7" stroke="#7d49d7"></path><path d="M546.7 248L510.9 146L508.9 265Z" fill="#5d2eb8" stroke="#5d2eb8"></path><path d="M336.3 487L457.9 494L453.1 469Z" fill="#481ba4" stroke="#481ba4"></path><path d="M594.7 454L615.7 364L500.9 358Z" fill="#5325ae" stroke="#5325ae"></path><path d="M360.3 0L284.3 67L410.1 114Z" fill="#7d49d7" stroke="#7d49d7"></path><path d="M410.1 114L284.3 67L371.3 189Z" fill="#925ceb" stroke="#925ceb"></path><path d="M248.5 135L115.8 192L161.6 266Z" fill="#481ba4" stroke="#481ba4"></path><path d="M200.5 488L241.5 507L203.5 405Z" fill="#300491" stroke="#300491"></path><path d="M203.5 405L241.5 507L337.3 420Z" fill="#9c65f6" stroke="#9c65f6"></path><path d="M336.3 487L379.1 568L457.9 494Z" fill="#300491" stroke="#300491"></path><path d="M141.6 445L200.5 488L203.5 405Z" fill="#481ba4" stroke="#481ba4"></path><path d="M128.6 117L115.8 192L248.5 135Z" fill="#5d2eb8" stroke="#5d2eb8"></path><path d="M83.8 304L86.8 335L144.6 339Z" fill="#300491" stroke="#300491"></path><path d="M144.6 339L141.6 445L203.5 405Z" fill="#3c109b" stroke="#3c109b"></path><path d="M86.8 335L141.6 445L144.6 339Z" fill="#9c65f6" stroke="#9c65f6"></path><path d="M615.7 364L521.9 324L500.9 358Z" fill="#481ba4" stroke="#481ba4"></path><path d="M521.9 324L614.7 285L546.7 248Z" fill="#481ba4" stroke="#481ba4"></path><path d="M579.7 123L546.7 90L510.9 146Z" fill="#925ceb" stroke="#925ceb"></path><path d="M83.8 304L144.6 339L161.6 266Z" fill="#5d2eb8" stroke="#5d2eb8"></path><path d="M115.8 192L83.8 304L161.6 266Z" fill="#6837c2" stroke="#6837c2"></path><path d="M594.7 454L447.9 422L453.1 469Z" fill="#5d2eb8" stroke="#5d2eb8"></path><path d="M284.3 67L232.5 49L248.5 135Z" fill="#481ba4" stroke="#481ba4"></path><path d="M546.7 90L521.9 76L510.9 146Z" fill="#5d2eb8" stroke="#5d2eb8"></path><path d="M510.9 146L521.9 76L410.1 114Z" fill="#925ceb" stroke="#925ceb"></path><path d="M284.3 67L273.5 0L232.5 49Z" fill="#925ceb" stroke="#925ceb"></path><path d="M303.3 568L379.1 568L336.3 487Z" fill="#5d2eb8" stroke="#5d2eb8"></path><path d="M457.9 494L594.7 454L453.1 469Z" fill="#9c65f6" stroke="#9c65f6"></path><path d="M241.5 507L303.3 568L336.3 487Z" fill="#6837c2" stroke="#6837c2"></path><path d="M273.5 600L303.3 568L241.5 507Z" fill="#6837c2" stroke="#6837c2"></path><path d="M273.5 600L241.5 507L208.6 600Z" fill="#7d49d7" stroke="#7d49d7"></path><path d="M579.7 123L510.9 146L546.7 248Z" fill="#481ba4" stroke="#481ba4"></path><path d="M633.5 170L579.7 123L546.7 248Z" fill="#6837c2" stroke="#6837c2"></path><path d="M232.5 49L128.6 117L248.5 135Z" fill="#300491" stroke="#300491"></path><path d="M115.8 192L40.8 179L83.8 304Z" fill="#6837c2" stroke="#6837c2"></path><path d="M588.7 501L594.7 454L457.9 494Z" fill="#300491" stroke="#300491"></path><path d="M108.8 101L119.6 117L128.6 117Z" fill="#8752e1" stroke="#8752e1"></path><path d="M128.6 117L119.6 117L115.8 192Z" fill="#9c65f6" stroke="#9c65f6"></path><path d="M443.1 0L360.3 0L410.1 114Z" fill="#925ceb" stroke="#925ceb"></path><path d="M360.3 0L273.5 0L284.3 67Z" fill="#481ba4" stroke="#481ba4"></path><path d="M131.6 0L108.8 101L128.6 117Z" fill="#9c65f6" stroke="#9c65f6"></path><path d="M614.7 285L633.5 170L546.7 248Z" fill="#3c109b" stroke="#3c109b"></path><path d="M558.7 0L521.9 76L546.7 90Z" fill="#7240cc" stroke="#7240cc"></path><path d="M667.5 281L633.5 170L614.7 285Z" fill="#481ba4" stroke="#481ba4"></path><path d="M303.3 568L355.3 600L379.1 568Z" fill="#6837c2" stroke="#6837c2"></path><path d="M559.7 600L588.7 501L457.9 494Z" fill="#5325ae" stroke="#5325ae"></path><path d="M514.9 0L443.1 0L521.9 76Z" fill="#300491" stroke="#300491"></path><path d="M521.9 76L443.1 0L410.1 114Z" fill="#7240cc" stroke="#7240cc"></path><path d="M658.5 463L660.5 344L615.7 364Z" fill="#6837c2" stroke="#6837c2"></path><path d="M615.7 364L660.5 344L614.7 285Z" fill="#300491" stroke="#300491"></path><path d="M131.6 0L128.6 117L232.5 49Z" fill="#7d49d7" stroke="#7d49d7"></path><path d="M119.6 117L40.8 179L115.8 192Z" fill="#6837c2" stroke="#6837c2"></path><path d="M451.1 600L457.9 494L379.1 568Z" fill="#925ceb" stroke="#925ceb"></path><path d="M594.7 454L658.5 463L615.7 364Z" fill="#7d49d7" stroke="#7d49d7"></path><path d="M660.5 344L667.5 281L614.7 285Z" fill="#3c109b" stroke="#3c109b"></path><path d="M303.3 568L273.5 600L355.3 600Z" fill="#9c65f6" stroke="#9c65f6"></path><path d="M144.6 546L241.5 507L200.5 488Z" fill="#5325ae" stroke="#5325ae"></path><path d="M355.3 600L451.1 600L379.1 568Z" fill="#7d49d7" stroke="#7d49d7"></path><path d="M61.8 457L144.6 546L141.6 445Z" fill="#9c65f6" stroke="#9c65f6"></path><path d="M141.6 445L144.6 546L200.5 488Z" fill="#300491" stroke="#300491"></path><path d="M451.1 600L470.9 600L457.9 494Z" fill="#7240cc" stroke="#7240cc"></path><path d="M108.8 101L40.8 179L119.6 117Z" fill="#9c65f6" stroke="#9c65f6"></path><path d="M0 409L61.8 457L86.8 335Z" fill="#300491" stroke="#300491"></path><path d="M86.8 335L61.8 457L141.6 445Z" fill="#300491" stroke="#300491"></path><path d="M0 268L86.8 335L83.8 304Z" fill="#925ceb" stroke="#925ceb"></path><path d="M558.7 0L514.9 0L521.9 76Z" fill="#5d2eb8" stroke="#5d2eb8"></path><path d="M558.7 0L546.7 90L633.5 63Z" fill="#3c109b" stroke="#3c109b"></path><path d="M144.6 546L208.6 600L241.5 507Z" fill="#925ceb" stroke="#925ceb"></path><path d="M729.4 276L699.5 257L667.5 281Z" fill="#925ceb" stroke="#925ceb"></path><path d="M667.5 281L699.5 257L633.5 170Z" fill="#300491" stroke="#300491"></path><path d="M633.5 63L546.7 90L579.7 123Z" fill="#6837c2" stroke="#6837c2"></path><path d="M613.5 560L658.5 463L588.7 501Z" fill="#9c65f6" stroke="#9c65f6"></path><path d="M588.7 501L658.5 463L594.7 454Z" fill="#3c109b" stroke="#3c109b"></path><path d="M727.4 346L729.4 276L667.5 281Z" fill="#9c65f6" stroke="#9c65f6"></path><path d="M40.8 179L0 268L83.8 304Z" fill="#8752e1" stroke="#8752e1"></path><path d="M633.5 63L579.7 123L633.5 170Z" fill="#7240cc" stroke="#7240cc"></path><path d="M763.4 143L633.5 63L633.5 170Z" fill="#5d2eb8" stroke="#5d2eb8"></path><path d="M0 175L0 205L40.8 179Z" fill="#8752e1" stroke="#8752e1"></path><path d="M40.8 179L0 205L0 268Z" fill="#8752e1" stroke="#8752e1"></path><path d="M273.5 0L131.6 0L232.5 49Z" fill="#7d49d7" stroke="#7d49d7"></path><path d="M0 76L0 175L40.8 179Z" fill="#3c109b" stroke="#3c109b"></path><path d="M470.9 600L559.7 600L457.9 494Z" fill="#5325ae" stroke="#5325ae"></path><path d="M559.7 600L613.5 560L588.7 501Z" fill="#5d2eb8" stroke="#5d2eb8"></path><path d="M0 268L0 409L86.8 335Z" fill="#7d49d7" stroke="#7d49d7"></path><path d="M61.8 457L67.8 556L144.6 546Z" fill="#3c109b" stroke="#3c109b"></path><path d="M0 76L40.8 179L108.8 101Z" fill="#7d49d7" stroke="#7d49d7"></path><path d="M0 409L0 418L61.8 457Z" fill="#7240cc" stroke="#7240cc"></path><path d="M727.4 346L667.5 281L660.5 344Z" fill="#5d2eb8" stroke="#5d2eb8"></path><path d="M699.5 257L727.4 208L633.5 170Z" fill="#3c109b" stroke="#3c109b"></path><path d="M658.5 463L727.4 346L660.5 344Z" fill="#925ceb" stroke="#925ceb"></path><path d="M700.4 481L727.4 346L658.5 463Z" fill="#7240cc" stroke="#7240cc"></path><path d="M729.4 276L727.4 208L699.5 257Z" fill="#3c109b" stroke="#3c109b"></path><path d="M0 496L67.8 556L61.8 457Z" fill="#5325ae" stroke="#5325ae"></path><path d="M144.6 546L87.8 600L208.6 600Z" fill="#9c65f6" stroke="#9c65f6"></path><path d="M714.4 512L700.4 481L658.5 463Z" fill="#5d2eb8" stroke="#5d2eb8"></path><path d="M737.4 0L627.5 0L633.5 63Z" fill="#300491" stroke="#300491"></path><path d="M633.5 63L627.5 0L558.7 0Z" fill="#925ceb" stroke="#925ceb"></path><path d="M131.6 0L77.8 0L108.8 101Z" fill="#481ba4" stroke="#481ba4"></path><path d="M0 600L87.8 600L67.8 556Z" fill="#3c109b" stroke="#3c109b"></path><path d="M67.8 556L87.8 600L144.6 546Z" fill="#7240cc" stroke="#7240cc"></path><path d="M0 418L0 496L61.8 457Z" fill="#7240cc" stroke="#7240cc"></path><path d="M77.8 0L0 76L108.8 101Z" fill="#5325ae" stroke="#5325ae"></path><path d="M685.5 600L714.4 512L613.5 560Z" fill="#925ceb" stroke="#925ceb"></path><path d="M613.5 560L714.4 512L658.5 463Z" fill="#9c65f6" stroke="#9c65f6"></path><path d="M826.2 442L841.2 358L727.4 346Z" fill="#6837c2" stroke="#6837c2"></path><path d="M780.2 133L763.4 143L813.2 226Z" fill="#6837c2" stroke="#6837c2"></path><path d="M727.4 208L763.4 143L633.5 170Z" fill="#7240cc" stroke="#7240cc"></path><path d="M763.4 143L727.4 208L813.2 226Z" fill="#8752e1" stroke="#8752e1"></path><path d="M727.4 208L729.4 276L813.2 226Z" fill="#6837c2" stroke="#6837c2"></path><path d="M559.7 600L685.5 600L613.5 560Z" fill="#9c65f6" stroke="#9c65f6"></path><path d="M813.2 226L729.4 276L832.2 258Z" fill="#6837c2" stroke="#6837c2"></path><path d="M763.4 143L782.4 87L633.5 63Z" fill="#925ceb" stroke="#925ceb"></path><path d="M77.8 0L0 0L0 76Z" fill="#925ceb" stroke="#925ceb"></path><path d="M729.4 276L727.4 346L841.2 358Z" fill="#5d2eb8" stroke="#5d2eb8"></path><path d="M832.2 258L729.4 276L841.2 358Z" fill="#5d2eb8" stroke="#5d2eb8"></path><path d="M0 496L0 600L67.8 556Z" fill="#6837c2" stroke="#6837c2"></path><path d="M900 157L782.4 87L780.2 133Z" fill="#300491" stroke="#300491"></path><path d="M780.2 133L782.4 87L763.4 143Z" fill="#5d2eb8" stroke="#5d2eb8"></path><path d="M727.4 346L700.4 481L826.2 442Z" fill="#9c65f6" stroke="#9c65f6"></path><path d="M813.2 226L900 157L780.2 133Z" fill="#8752e1" stroke="#8752e1"></path><path d="M781.2 56L737.4 0L633.5 63Z" fill="#925ceb" stroke="#925ceb"></path><path d="M900 36L781.2 56L782.4 87Z" fill="#9c65f6" stroke="#9c65f6"></path><path d="M782.4 87L781.2 56L633.5 63Z" fill="#300491" stroke="#300491"></path><path d="M826.2 442L700.4 481L802.2 514Z" fill="#481ba4" stroke="#481ba4"></path><path d="M802.2 514L700.4 481L714.4 512Z" fill="#300491" stroke="#300491"></path><path d="M763.4 600L802.2 514L714.4 512Z" fill="#5325ae" stroke="#5325ae"></path><path d="M685.5 600L763.4 600L714.4 512Z" fill="#300491" stroke="#300491"></path><path d="M900 36L779.2 0L781.2 56Z" fill="#6837c2" stroke="#6837c2"></path><path d="M781.2 56L779.2 0L737.4 0Z" fill="#7240cc" stroke="#7240cc"></path><path d="M763.4 600L777.2 600L802.2 514Z" fill="#7d49d7" stroke="#7d49d7"></path><path d="M900 338L841.2 358L900 472Z" fill="#8752e1" stroke="#8752e1"></path><path d="M841.2 358L900 335L832.2 258Z" fill="#7d49d7" stroke="#7d49d7"></path><path d="M832.2 258L900 232L813.2 226Z" fill="#3c109b" stroke="#3c109b"></path><path d="M900 338L900 335L841.2 358Z" fill="#8752e1" stroke="#8752e1"></path><path d="M841.2 358L826.2 442L900 472Z" fill="#8752e1" stroke="#8752e1"></path><path d="M900 472L826.2 442L900 492Z" fill="#7d49d7" stroke="#7d49d7"></path><path d="M900 335L900 232L832.2 258Z" fill="#5d2eb8" stroke="#5d2eb8"></path><path d="M900 232L900 157L813.2 226Z" fill="#5325ae" stroke="#5325ae"></path><path d="M900 492L826.2 442L802.2 514Z" fill="#5325ae" stroke="#5325ae"></path><path d="M900 600L900 492L802.2 514Z" fill="#7240cc" stroke="#7240cc"></path><path d="M900 157L900 36L782.4 87Z" fill="#9c65f6" stroke="#9c65f6"></path><path d="M900 36L900 0L779.2 0Z" fill="#925ceb" stroke="#925ceb"></path><path d="M777.2 600L900 600L802.2 514Z" fill="#7240cc" stroke="#7240cc"></path></g></svg>